<svg xmlns="http://www.w3.org/2000/svg" width="90" height="90">
  <g fill="none" fill-rule="evenodd">
    <rect width="90" height="90" fill="#FFF" rx="12"/>
    <path fill="#B7CFFF" fill-rule="nonzero" d="M66.68 21H24.32A3.322 3.322 0 0 0 21 24.32v42.36A3.322 3.322 0 0 0 24.32 70h42.36A3.322 3.322 0 0 0 70 66.68V24.32A3.322 3.322 0 0 0 66.68 21Zm-1.09 44.59H25.41v-28.5h40.18v28.5Zm0-32.91H25.41v-7.27h40.18v7.27Z"/>
    <path fill="#DAE1EB" fill-rule="nonzero" d="M27.474 29.048a2.205 2.205 0 1 0 4.41 0 2.205 2.205 0 0 0-4.41 0ZM27.037 53.095l8.226 6.983c.417.349.919.526 1.427.526a2.21 2.21 0 0 0 1.685-.778 2.198 2.198 0 0 0-.258-3.105l-6.24-5.304 6.228-5.25a2.198 2.198 0 0 0 .264-3.105 2.198 2.198 0 0 0-3.106-.263l-8.22 6.927a2.206 2.206 0 0 0-.006 3.369ZM58.927 51.417l-6.235 5.292a2.204 2.204 0 1 0 2.854 3.356l8.226-6.982a2.206 2.206 0 0 0-.006-3.369l-8.232-6.915a2.204 2.204 0 0 0-3.105.263 2.199 2.199 0 0 0 .27 3.106l6.228 5.249ZM33.538 29.073a2.205 2.205 0 1 0 4.41 0 2.205 2.205 0 0 0-4.41 0Z"/>
    <path stroke="#DAE1EB" stroke-linecap="round" stroke-linejoin="round" stroke-width="3.063" d="m48.888 43.022-7.614 16.086"/>
  </g>
</svg>
